<svg width="32" height="32" viewBox="0 0 32 32" fill="none" xmlns="http://www.w3.org/2000/svg">
<path fill-rule="evenodd" clip-rule="evenodd" d="M16 32C24.8366 32 32 24.8366 32 16C32 7.16344 24.8366 0 16 0C7.16344 0 0 7.16344 0 16C0 24.8366 7.16344 32 16 32ZM9.14286 22.9L10.8878 8.68571H14.608L13.7857 15.4286H13.8571C16.7444 13.5603 18.1594 11.2294 18.8522 8.68571H22.6711C22.103 11.4282 20.6249 13.8745 18.5571 15.8714L19.1429 17.5143H19.1571C19.9 19.5714 20.5571 19.9714 21.8 20.1714L20.8429 23.1C20.5714 23.1286 20.3143 23.1429 19.9 23.1429C17.6571 23.1286 16.8429 21.4571 15.8857 18.8714L15.6571 18.2143H15.6C14.8571 18.6857 14.0714 19.1143 13.2571 19.5L12.8571 22.9H9.14286Z" fill="#111827"/>
</svg>
